{
  "accessors": [
    {
      "bufferView": 2,
      "componentType": 5126,
      "count": 1575,
      "max": [
        565.7650756835938,
        -11.99615478515625,
        137.92730712890625
      ],
      "min": [
        -167.20860290527344,
        -286.473876953125,
        -303.2943420410156
      ],
      "type": "VEC3"
    },
    {
      "bufferView": 2,
      "byteOffset": 18900,
      "componentType": 5126,
      "count": 1575,
      "max": [
        0.9969406723976135,
        1.0,
        1.0
      ],
      "min": [
        -1.0,
        -1.0,
        -0.9989016056060791
      ],
      "type": "VEC3"
    },
    {
      "bufferView": 3,
      "componentType": 5126,
      "count": 1575,
      "max": [
        1.0,
        1.0,
        1.0,
        1.0
      ],
      "min": [
        -0.9999998807907104,
        -1.0,
        -1.0,
        -1.0
      ],
      "type": "VEC4"
    },
    {
      "bufferView": 1,
      "componentType": 5126,
      "count": 1575,
      "max": [
        0.98210209608078,
        1.0
      ],
      "min": [
        0.0,
        0.0
      ],
      "type": "VEC2"
    },
    {
      "bufferView": 1,
      "byteOffset": 12600,
      "componentType": 5126,
      "count": 1575,
      "max": [
        0.98210209608078,
        1.0
      ],
      "min": [
        0.0,
        0.0
      ],
      "type": "VEC2"
    },
    {
      "bufferView": 0,
      "componentType": 5125,
      "count": 4797,
      "type": "SCALAR"
    },
    {
      "bufferView": 2,
      "byteOffset": 37800,
      "componentType": 5126,
      "count": 32,
      "max": [
        542.592529296875,
        -23.854032516479492,
        112.86661529541016
      ],
      "min": [
        -135.59512329101563,
        -23.854032516479492,
        -294.0657958984375
      ],
      "type": "VEC3"
    },
    {
      "bufferView": 2,
      "byteOffset": 38184,
      "componentType": 5126,
      "count": 32,
      "max": [
        4.5021350536522675e-10,
        1.0,
        0.0
      ],
      "min": [
        4.5021350536522675e-10,
        1.0,
        0.0
      ],
      "type": "VEC3"
    },
    {
      "bufferView": 3,
      "byteOffset": 25200,
      "componentType": 5126,
      "count": 32,
      "max": [
        -0.009338260628283024,
        4.219749983463972e-12,
        0.9999564290046692,
        1.0
      ],
      "min": [
        -0.009372774511575699,
        4.2042111979279095e-12,
        0.9999560713768005,
        1.0
      ],
      "type": "VEC4"
    },
    {
      "bufferView": 1,
      "byteOffset": 25200,
      "componentType": 5126,
      "count": 32,
      "max": [
        0.5911426544189453,
        1.0
      ],
      "min": [
        0.0,
        0.0
      ],
      "type": "VEC2"
    },
    {
      "bufferView": 1,
      "byteOffset": 25456,
      "componentType": 5126,
      "count": 32,
      "max": [
        0.5911426544189453,
        1.0
      ],
      "min": [
        0.0,
        0.0
      ],
      "type": "VEC2"
    },
    {
      "bufferView": 0,
      "byteOffset": 19188,
      "componentType": 5125,
      "count": 90,
      "type": "SCALAR"
    },
    {
      "bufferView": 2,
      "byteOffset": 38568,
      "componentType": 5126,
      "count": 11888,
      "max": [
        108.48809814453125,
        27.396696090698242,
        108.19474792480469
      ],
      "min": [
        -108.48809814453125,
        -47.5914306640625,
        -108.58592987060547
      ],
      "type": "VEC3"
    },
    {
      "bufferView": 2,
      "byteOffset": 181224,
      "componentType": 5126,
      "count": 11888,
      "max": [
        1.0,
        1.0,
        1.0
      ],
      "min": [
        -1.0,
        -1.0,
        -1.0
      ],
      "type": "VEC3"
    },
    {
      "bufferView": 3,
      "byteOffset": 25712,
      "componentType": 5126,
      "count": 11888,
      "max": [
        0.9999993443489075,
        1.0,
        0.9999682307243347,
        1.0
      ],
      "min": [
        -0.9999992847442627,
        -0.999990701675415,
        -1.0,
        -1.0
      ],
      "type": "VEC4"
    },
    {
      "bufferView": 1,
      "byteOffset": 25712,
      "componentType": 5126,
      "count": 11888,
      "max": [
        0.9986181259155273,
        0.9852045774459839
      ],
      "min": [
        0.006136109586805105,
        -0.0037537366151809692
      ],
      "type": "VEC2"
    },
    {
      "bufferView": 1,
      "byteOffset": 120816,
      "componentType": 5126,
      "count": 11888,
      "max": [
        0.9986181259155273,
        0.9852045774459839
      ],
      "min": [
        0.006136109586805105,
        -0.0037537366151809692
      ],
      "type": "VEC2"
    },
    {
      "bufferView": 0,
      "byteOffset": 19548,
      "componentType": 5125,
      "count": 43125,
      "type": "SCALAR"
    }
  ],
  "asset": {
    "extras": {
      "author": "Tameranian (https://sketchfab.com/tameranian)",
      "license": "CC-BY-4.0 (http://creativecommons.org/licenses/by/4.0/)",
      "source": "https://sketchfab.com/3d-models/roulette-table-f276b7fc198e4556932c7b52761e409c",
      "title": "Roulette Table"
    },
    "generator": "Sketchfab-14.88.0",
    "version": "2.0"
  },
  "bufferViews": [
    {
      "buffer": 0,
      "byteLength": 192048,
      "name": "floatBufferViews",
      "target": 34963
    },
    {
      "buffer": 0,
      "byteLength": 215920,
      "byteOffset": 192048,
      "byteStride": 8,
      "name": "floatBufferViews",
      "target": 34962
    },
    {
      "buffer": 0,
      "byteLength": 323880,
      "byteOffset": 407968,
      "byteStride": 12,
      "name": "floatBufferViews",
      "target": 34962
    },
    {
      "buffer": 0,
      "byteLength": 215920,
      "byteOffset": 731848,
      "byteStride": 16,
      "name": "floatBufferViews",
      "target": 34962
    }
  ],
  "buffers": [
    {
      "byteLength": 947768,
      "uri": "scene.bin"
    }
  ],
  "images": [
    {
      "uri": "textures/Table_baseColor.png"
    },
    {
      "uri": "textures/Table_metallicRoughness.png"
    },
    {
      "uri": "textures/Table_normal.png"
    },
    {
      "uri": "textures/Green_Top_baseColor.png"
    },
    {
      "uri": "textures/Green_Top_metallicRoughness.png"
    },
    {
      "uri": "textures/Green_Top_normal.png"
    },
    {
      "uri": "textures/Wheel_baseColor.png"
    },
    {
      "uri": "textures/Wheel_metallicRoughness.png"
    },
    {
      "uri": "textures/Wheel_normal.png"
    }
  ],
  "materials": [
    {
      "doubleSided": true,
      "name": "Table",
      "normalTexture": {
        "index": 2
      },
      "occlusionTexture": {
        "index": 1
      },
      "pbrMetallicRoughness": {
        "baseColorTexture": {
          "index": 0
        },
        "metallicRoughnessTexture": {
          "index": 1
        }
      }
    },
    {
      "doubleSided": true,
      "name": "Green_Top",
      "normalTexture": {
        "index": 5
      },
      "occlusionTexture": {
        "index": 4
      },
      "pbrMetallicRoughness": {
        "baseColorTexture": {
          "index": 3
        },
        "metallicRoughnessTexture": {
          "index": 4
        }
      }
    },
    {
      "doubleSided": true,
      "name": "Wheel",
      "normalTexture": {
        "index": 8
      },
      "occlusionTexture": {
        "index": 7
      },
      "pbrMetallicRoughness": {
        "baseColorTexture": {
          "index": 6
        },
        "metallicRoughnessTexture": {
          "index": 7
        }
      }
    }
  ],
  "meshes": [
    {
      "name": "Table.003_Table_0",
      "primitives": [
        {
          "attributes": {
            "NORMAL": 1,
            "POSITION": 0,
            "TANGENT": 2,
            "TEXCOORD_0": 3,
            "TEXCOORD_1": 4
          },
          "indices": 5,
          "material": 0,
          "mode": 4
        }
      ]
    },
    {
      "name": "Table.003_Green Top_0",
      "primitives": [
        {
          "attributes": {
            "NORMAL": 7,
            "POSITION": 6,
            "TANGENT": 8,
            "TEXCOORD_0": 9,
            "TEXCOORD_1": 10
          },
          "indices": 11,
          "material": 1,
          "mode": 4
        }
      ]
    },
    {
      "name": "Table.003_Wheel_0",
      "primitives": [
        {
          "attributes": {
            "NORMAL": 13,
            "POSITION": 12,
            "TANGENT": 14,
            "TEXCOORD_0": 15,
            "TEXCOORD_1": 16
          },
          "indices": 17,
          "material": 2,
          "mode": 4
        }
      ]
    }
  ],
  "nodes": [
    {
      "children": [
        1
      ],
      "matrix": [
        1.0,
        0.0,
        0.0,
        0.0,
        0.0,
        2.220446049250313e-16,
        -1.0,
        0.0,
        0.0,
        1.0,
        2.220446049250313e-16,
        0.0,
        0.0,
        0.0,
        0.0,
        1.0
      ],
      "name": "Sketchfab_model"
    },
    {
      "children": [
        2
      ],
      "matrix": [
        0.009999999776482582,
        0.0,
        0.0,
        0.0,
        0.0,
        0.0,
        0.009999999776482582,
        0.0,
        0.0,
        -0.009999999776482582,
        0.0,
        0.0,
        0.0,
        0.0,
        0.0,
        1.0
      ],
      "name": "c52f2f46551c4e0f958a2f4c440397d2.fbx"
    },
    {
      "children": [
        3
      ],
      "name": "RootNode"
    },
    {
      "children": [
        4,
        5,
        6
      ],
      "name": "Table.003"
    },
    {
      "mesh": 0,
      "name": "Table.003_Table_0"
    },
    {
      "mesh": 1,
      "name": "Table.003_Green Top_0"
    },
    {
      "mesh": 2,
      "name": "Table.003_Wheel_0"
    }
  ],
  "samplers": [
    {
      "magFilter": 9729,
      "minFilter": 9987,
      "wrapS": 10497,
      "wrapT": 10497
    }
  ],
  "scene": 0,
  "scenes": [
    {
      "name": "Sketchfab_Scene",
      "nodes": [
        0
      ]
    }
  ],
  "textures": [
    {
      "sampler": 0,
      "source": 0
    },
    {
      "sampler": 0,
      "source": 1
    },
    {
      "sampler": 0,
      "source": 2
    },
    {
      "sampler": 0,
      "source": 3
    },
    {
      "sampler": 0,
      "source": 4
    },
    {
      "sampler": 0,
      "source": 5
    },
    {
      "sampler": 0,
      "source": 6
    },
    {
      "sampler": 0,
      "source": 7
    },
    {
      "sampler": 0,
      "source": 8
    }
  ]
}
