{
  "accessors": [
    {
      "bufferView": 2,
      "componentType": 5126,
      "count": 990,
      "max": [
        3.7813282012939453,
        8.054875373840332,
        1.5817272663116455
      ],
      "min": [
        -3.7813282012939453,
        7.027084939181805e-05,
        -1.5817272663116455
      ],
      "type": "VEC3"
    },
    {
      "bufferView": 2,
      "byteOffset": 11880,
      "componentType": 5126,
      "count": 990,
      "max": [
        1.0,
        1.0,
        1.0
      ],
      "min": [
        -1.0,
        -1.0,
        -1.0
      ],
      "type": "VEC3"
    },
    {
      "bufferView": 1,
      "componentType": 5126,
      "count": 990,
      "max": [
        0.5740436911582947,
        0.38836196064949036
      ],
      "min": [
        0.0004931911826133728,
        0.0005295723676681519
      ],
      "type": "VEC2"
    },
    {
      "bufferView": 1,
      "byteOffset": 7920,
      "componentType": 5126,
      "count": 990,
      "max": [
        0.5740436911582947,
        0.38836196064949036
      ],
      "min": [
        0.0004931911826133728,
        0.0005295723676681519
      ],
      "type": "VEC2"
    },
    {
      "bufferView": 1,
      "byteOffset": 15840,
      "componentType": 5126,
      "count": 990,
      "max": [
        0.5740436911582947,
        0.38836196064949036
      ],
      "min": [
        0.0004931911826133728,
        0.0005295723676681519
      ],
      "type": "VEC2"
    },
    {
      "bufferView": 0,
      "componentType": 5125,
      "count": 4668,
      "type": "SCALAR"
    }
  ],
  "asset": {
    "extras": {
      "author": "andre.arancibia (https://sketchfab.com/andre.arancibia)",
      "license": "CC-BY-4.0 (http://creativecommons.org/licenses/by/4.0/)",
      "source": "https://sketchfab.com/3d-models/t-letter-708d7e7f28f24c82b36adf388b81aa64",
      "title": "T Letter"
    },
    "generator": "Sketchfab-15.22.0",
    "version": "2.0"
  },
  "bufferViews": [
    {
      "buffer": 0,
      "byteLength": 18672,
      "name": "floatBufferViews",
      "target": 34963
    },
    {
      "buffer": 0,
      "byteLength": 23760,
      "byteOffset": 18672,
      "byteStride": 8,
      "name": "floatBufferViews",
      "target": 34962
    },
    {
      "buffer": 0,
      "byteLength": 23760,
      "byteOffset": 42432,
      "byteStride": 12,
      "name": "floatBufferViews",
      "target": 34962
    }
  ],
  "buffers": [
    {
      "byteLength": 66192,
      "uri": "scene.bin"
    }
  ],
  "extensionsRequired": [
    "KHR_materials_pbrSpecularGlossiness"
  ],
  "extensionsUsed": [
    "KHR_materials_pbrSpecularGlossiness"
  ],
  "images": [
    {
      "uri": "textures/material_diffuse.png"
    },
    {
      "uri": "textures/material_specularGlossiness.png"
    }
  ],
  "materials": [
    {
      "doubleSided": true,
      "extensions": {
        "KHR_materials_pbrSpecularGlossiness": {
          "diffuseFactor": [
            1.0,
            1.0,
            1.0,
            1.0
          ],
          "diffuseTexture": {
            "index": 0
          },
          "glossinessFactor": 1.0,
          "specularFactor": [
            1.0,
            1.0,
            1.0
          ],
          "specularGlossinessTexture": {
            "index": 1
          }
        }
      },
      "name": "material"
    }
  ],
  "meshes": [
    {
      "name": "Object_0",
      "primitives": [
        {
          "attributes": {
            "NORMAL": 1,
            "POSITION": 0,
            "TEXCOORD_0": 2,
            "TEXCOORD_1": 3,
            "TEXCOORD_2": 4
          },
          "indices": 5,
          "material": 0,
          "mode": 4
        }
      ]
    }
  ],
  "nodes": [
    {
      "children": [
        1
      ],
      "matrix": [
        1.0,
        0.0,
        0.0,
        0.0,
        0.0,
        2.220446049250313e-16,
        -1.0,
        0.0,
        0.0,
        1.0,
        2.220446049250313e-16,
        0.0,
        0.0,
        0.0,
        0.0,
        1.0
      ],
      "name": "Sketchfab_model"
    },
    {
      "children": [
        2
      ],
      "name": "root"
    },
    {
      "children": [
        3
      ],
      "matrix": [
        1.0,
        0.0,
        0.0,
        0.0,
        0.0,
        2.220446049250313e-16,
        1.0,
        0.0,
        0.0,
        -1.0,
        2.220446049250313e-16,
        0.0,
        0.0,
        0.0,
        0.0,
        1.0
      ],
      "name": "GLTF_SceneRootNode"
    },
    {
      "children": [
        4
      ],
      "name": "root_0"
    },
    {
      "children": [
        5
      ],
      "matrix": [
        0.06356454640626907,
        0.0,
        0.0,
        0.0,
        0.0,
        0.06356454640626907,
        0.0,
        0.0,
        0.0,
        0.0,
        0.06356454640626907,
        0.0,
        -0.09817678481340408,
        -0.14764922857284546,
        0.21027667820453644,
        1.0
      ],
      "name": "node_id140_1"
    },
    {
      "mesh": 0,
      "name": "Object_5"
    }
  ],
  "samplers": [
    {
      "magFilter": 9729,
      "minFilter": 9987,
      "wrapS": 10497,
      "wrapT": 10497
    }
  ],
  "scene": 0,
  "scenes": [
    {
      "name": "Sketchfab_Scene",
      "nodes": [
        0
      ]
    }
  ],
  "textures": [
    {
      "sampler": 0,
      "source": 0
    },
    {
      "sampler": 0,
      "source": 1
    }
  ]
}
