{
  "accessors": [
    {
      "bufferView": 2,
      "componentType": 5126,
      "count": 65534,
      "max": [
        52.930938720703125,
        50.85435104370117,
        -41.39006042480469
      ],
      "min": [
        -52.73107147216797,
        -50.85435104370117,
        -73.3994369506836
      ],
      "type": "VEC3"
    },
    {
      "bufferView": 2,
      "byteOffset": 786408,
      "componentType": 5126,
      "count": 65534,
      "max": [
        0.999921977519989,
        0.9994465112686157,
        1.0
      ],
      "min": [
        -0.9999924302101135,
        -0.999909520149231,
        -0.9997992515563965
      ],
      "type": "VEC3"
    },
    {
      "bufferView": 1,
      "componentType": 5126,
      "count": 65534,
      "max": [
        0.9986600279808044,
        0.9970200061798096
      ],
      "min": [
        0.0003699999942909926,
        0.6810299754142761
      ],
      "type": "VEC2"
    },
    {
      "bufferView": 0,
      "componentType": 5125,
      "count": 320127,
      "type": "SCALAR"
    },
    {
      "bufferView": 2,
      "byteOffset": 1572816,
      "componentType": 5126,
      "count": 65533,
      "max": [
        52.39686965942383,
        44.85594177246094,
        -46.625789642333984
      ],
      "min": [
        -52.930938720703125,
        -50.14311981201172,
        -74.0499496459961
      ],
      "type": "VEC3"
    },
    {
      "bufferView": 2,
      "byteOffset": 2359212,
      "componentType": 5126,
      "count": 65533,
      "max": [
        0.999981164932251,
        0.9998680353164673,
        0.9989996552467346
      ],
      "min": [
        -0.9999924302101135,
        -0.9996925592422485,
        -1.0
      ],
      "type": "VEC3"
    },
    {
      "bufferView": 1,
      "byteOffset": 524272,
      "componentType": 5126,
      "count": 65533,
      "max": [
        0.9993900060653687,
        0.9971299767494202
      ],
      "min": [
        0.0003699999942909926,
        0.6546599864959717
      ],
      "type": "VEC2"
    },
    {
      "bufferView": 0,
      "byteOffset": 1280508,
      "componentType": 5125,
      "count": 109044,
      "type": "SCALAR"
    },
    {
      "bufferView": 2,
      "byteOffset": 3145608,
      "componentType": 5126,
      "count": 65532,
      "max": [
        41.705238342285156,
        12.433449745178223,
        -72.90170288085938
      ],
      "min": [
        -50.44866943359375,
        -39.81806182861328,
        -74.05066680908203
      ],
      "type": "VEC3"
    },
    {
      "bufferView": 2,
      "byteOffset": 3931992,
      "componentType": 5126,
      "count": 65532,
      "max": [
        0.9989544153213501,
        0.9713711142539978,
        0.04651568830013275
      ],
      "min": [
        -0.9874781370162964,
        -0.9036073684692383,
        -1.0
      ],
      "type": "VEC3"
    },
    {
      "bufferView": 1,
      "byteOffset": 1048536,
      "componentType": 5126,
      "count": 65532,
      "max": [
        0.9993900060653687,
        0.6868900060653687
      ],
      "min": [
        0.0003699999942909926,
        0.659060001373291
      ],
      "type": "VEC2"
    },
    {
      "bufferView": 0,
      "byteOffset": 1716684,
      "componentType": 5125,
      "count": 65532,
      "type": "SCALAR"
    },
    {
      "bufferView": 2,
      "byteOffset": 4718376,
      "componentType": 5126,
      "count": 65533,
      "max": [
        48.68115997314453,
        40.22105026245117,
        -49.56993103027344
      ],
      "min": [
        -52.92308044433594,
        -47.81296920776367,
        -74.05066680908203
      ],
      "type": "VEC3"
    },
    {
      "bufferView": 2,
      "byteOffset": 5504772,
      "componentType": 5126,
      "count": 65533,
      "max": [
        0.9997432231903076,
        0.9995595812797546,
        0.9992544651031494
      ],
      "min": [
        -0.9994850158691406,
        -0.999909520149231,
        -1.0
      ],
      "type": "VEC3"
    },
    {
      "bufferView": 1,
      "byteOffset": 1572792,
      "componentType": 5126,
      "count": 65533,
      "max": [
        0.9993900060653687,
        0.989329993724823
      ],
      "min": [
        0.0003699999942909926,
        0.6546599864959717
      ],
      "type": "VEC2"
    },
    {
      "bufferView": 0,
      "byteOffset": 1978812,
      "componentType": 5125,
      "count": 84231,
      "type": "SCALAR"
    },
    {
      "bufferView": 2,
      "byteOffset": 6291168,
      "componentType": 5126,
      "count": 6437,
      "max": [
        50.825340270996094,
        40.94926071166992,
        -48.77246856689453
      ],
      "min": [
        -52.61083984375,
        -49.04705810546875,
        -52.61888885498047
      ],
      "type": "VEC3"
    },
    {
      "bufferView": 2,
      "byteOffset": 6368412,
      "componentType": 5126,
      "count": 6437,
      "max": [
        0.9964978694915771,
        0.9966739416122437,
        0.9993938207626343
      ],
      "min": [
        -0.9996805787086487,
        -0.9951410293579102,
        -0.9999096393585205
      ],
      "type": "VEC3"
    },
    {
      "bufferView": 1,
      "byteOffset": 2097056,
      "componentType": 5126,
      "count": 6437,
      "max": [
        0.9993900060653687,
        0.9913899898529053
      ],
      "min": [
        0.0003699999942909926,
        0.6715099811553955
      ],
      "type": "VEC2"
    },
    {
      "bufferView": 0,
      "byteOffset": 2315736,
      "componentType": 5125,
      "count": 7158,
      "type": "SCALAR"
    }
  ],
  "asset": {
    "extras": {
      "author": "Qlone (https://sketchfab.com/Qlone)",
      "license": "CC-BY-ND-4.0 (http://creativecommons.org/licenses/by-nd/4.0/)",
      "source": "https://sketchfab.com/3d-models/deck-of-cards-a96e522f1546440d9a82d853c98a8417",
      "title": "Deck of cards"
    },
    "generator": "Sketchfab-12.66.0",
    "version": "2.0"
  },
  "bufferViews": [
    {
      "buffer": 0,
      "byteLength": 2344368,
      "name": "floatBufferViews",
      "target": 34963
    },
    {
      "buffer": 0,
      "byteLength": 2148552,
      "byteOffset": 2344368,
      "byteStride": 8,
      "name": "floatBufferViews",
      "target": 34962
    },
    {
      "buffer": 0,
      "byteLength": 6445656,
      "byteOffset": 4492920,
      "byteStride": 12,
      "name": "floatBufferViews",
      "target": 34962
    }
  ],
  "buffers": [
    {
      "byteLength": 10938576,
      "uri": "scene.bin"
    }
  ],
  "extensionsUsed": [
    "KHR_materials_unlit"
  ],
  "images": [
    {
      "uri": "textures/material0_baseColor.jpeg"
    }
  ],
  "materials": [
    {
      "doubleSided": true,
      "emissiveTexture": {
        "index": 0
      },
      "extensions": {
        "KHR_materials_unlit": {}
      },
      "name": "material0",
      "pbrMetallicRoughness": {
        "baseColorTexture": {
          "index": 0
        },
        "metallicFactor": 0.0
      }
    }
  ],
  "meshes": [
    {
      "name": "Object_0",
      "primitives": [
        {
          "attributes": {
            "NORMAL": 1,
            "POSITION": 0,
            "TEXCOORD_0": 2
          },
          "indices": 3,
          "material": 0,
          "mode": 4
        }
      ]
    },
    {
      "name": "Object_1",
      "primitives": [
        {
          "attributes": {
            "NORMAL": 5,
            "POSITION": 4,
            "TEXCOORD_0": 6
          },
          "indices": 7,
          "material": 0,
          "mode": 4
        }
      ]
    },
    {
      "name": "Object_2",
      "primitives": [
        {
          "attributes": {
            "NORMAL": 9,
            "POSITION": 8,
            "TEXCOORD_0": 10
          },
          "indices": 11,
          "material": 0,
          "mode": 4
        }
      ]
    },
    {
      "name": "Object_3",
      "primitives": [
        {
          "attributes": {
            "NORMAL": 13,
            "POSITION": 12,
            "TEXCOORD_0": 14
          },
          "indices": 15,
          "material": 0,
          "mode": 4
        }
      ]
    },
    {
      "name": "Object_4",
      "primitives": [
        {
          "attributes": {
            "NORMAL": 17,
            "POSITION": 16,
            "TEXCOORD_0": 18
          },
          "indices": 19,
          "material": 0,
          "mode": 4
        }
      ]
    }
  ],
  "nodes": [
    {
      "children": [
        1
      ],
      "matrix": [
        1.0,
        0.0,
        0.0,
        0.0,
        0.0,
        2.220446049250313e-16,
        -1.0,
        0.0,
        0.0,
        1.0,
        2.220446049250313e-16,
        0.0,
        0.0,
        0.0,
        0.0,
        1.0
      ],
      "name": "Sketchfab_model"
    },
    {
      "children": [
        2,
        3,
        4,
        5,
        6
      ],
      "name": "model_Deck of cards_20210129_155825352.obj.cleaner.materialmerger.gles"
    },
    {
      "mesh": 0,
      "name": "Object_2"
    },
    {
      "mesh": 1,
      "name": "Object_3"
    },
    {
      "mesh": 2,
      "name": "Object_4"
    },
    {
      "mesh": 3,
      "name": "Object_5"
    },
    {
      "mesh": 4,
      "name": "Object_6"
    }
  ],
  "samplers": [
    {
      "magFilter": 9729,
      "minFilter": 9987,
      "wrapS": 10497,
      "wrapT": 10497
    }
  ],
  "scene": 0,
  "scenes": [
    {
      "name": "Sketchfab_Scene",
      "nodes": [
        0
      ]
    }
  ],
  "textures": [
    {
      "sampler": 0,
      "source": 0
    }
  ]
}
