{
  "accessors": [
    {
      "bufferView": 2,
      "componentType": 5126,
      "count": 17192,
      "max": [
        1.0732779502868652,
        1.7279499769210815,
        2.9614009857177734
      ],
      "min": [
        -1.1249200105667114,
        -2.6161320209503174,
        1.5775680541992188
      ],
      "type": "VEC3"
    },
    {
      "bufferView": 2,
      "byteOffset": 206304,
      "componentType": 5126,
      "count": 17192,
      "max": [
        1.0,
        1.0,
        1.0
      ],
      "min": [
        -1.0,
        -1.0,
        -1.0
      ],
      "type": "VEC3"
    },
    {
      "bufferView": 3,
      "componentType": 5126,
      "count": 17192,
      "max": [
        1.0,
        1.0,
        1.0,
        1.0
      ],
      "min": [
        -1.0,
        -1.0,
        -1.0,
        1.0
      ],
      "type": "VEC4"
    },
    {
      "bufferView": 1,
      "componentType": 5126,
      "count": 17192,
      "max": [
        0.9999989867210388,
        0.9999579787254333
      ],
      "min": [
        0.0,
        0.0
      ],
      "type": "VEC2"
    },
    {
      "bufferView": 0,
      "componentType": 5125,
      "count": 65280,
      "type": "SCALAR"
    }
  ],
  "asset": {
    "extras": {
      "author": "Pieter Ferreira (https://sketchfab.com/Badboy17Aiden)",
      "license": "CC-BY-4.0 (http://creativecommons.org/licenses/by/4.0/)",
      "source": "https://sketchfab.com/3d-models/poker-table-a48473a5ae7c437496a7aa388f8c458b",
      "title": "Poker Table"
    },
    "generator": "Sketchfab-13.74.0",
    "version": "2.0"
  },
  "bufferViews": [
    {
      "buffer": 0,
      "byteLength": 261120,
      "name": "floatBufferViews",
      "target": 34963
    },
    {
      "buffer": 0,
      "byteLength": 137536,
      "byteOffset": 261120,
      "byteStride": 8,
      "name": "floatBufferViews",
      "target": 34962
    },
    {
      "buffer": 0,
      "byteLength": 412608,
      "byteOffset": 398656,
      "byteStride": 12,
      "name": "floatBufferViews",
      "target": 34962
    },
    {
      "buffer": 0,
      "byteLength": 275072,
      "byteOffset": 811264,
      "byteStride": 16,
      "name": "floatBufferViews",
      "target": 34962
    }
  ],
  "buffers": [
    {
      "byteLength": 1086336,
      "uri": "scene.bin"
    }
  ],
  "images": [
    {
      "uri": "textures/Poker_table_baseColor.png"
    },
    {
      "uri": "textures/Poker_table_metallicRoughness.png"
    },
    {
      "uri": "textures/Poker_table_normal.png"
    }
  ],
  "materials": [
    {
      "doubleSided": true,
      "name": "Poker_table",
      "normalTexture": {
        "index": 2
      },
      "pbrMetallicRoughness": {
        "baseColorTexture": {
          "index": 0
        },
        "metallicRoughnessTexture": {
          "index": 1
        }
      }
    }
  ],
  "meshes": [
    {
      "name": "Object_0",
      "primitives": [
        {
          "attributes": {
            "NORMAL": 1,
            "POSITION": 0,
            "TANGENT": 2,
            "TEXCOORD_0": 3
          },
          "indices": 4,
          "material": 0,
          "mode": 4
        }
      ]
    }
  ],
  "nodes": [
    {
      "children": [
        1
      ],
      "matrix": [
        1.496682336205523e-16,
        -1.496682336205523e-16,
        0.6740458011627197,
        0.0,
        0.6740458011627197,
        3.3233023804102826e-32,
        -1.496682336205523e-16,
        0.0,
        0.0,
        0.6740458011627197,
        1.496682336205523e-16,
        0.0,
        0.0,
        0.0,
        0.0,
        1.0
      ],
      "name": "Sketchfab_model"
    },
    {
      "children": [
        2
      ],
      "name": "latest poker table.obj.cleaner.materialmerger.gles"
    },
    {
      "mesh": 0,
      "name": "Object_2"
    }
  ],
  "samplers": [
    {
      "magFilter": 9729,
      "minFilter": 9987,
      "wrapS": 10497,
      "wrapT": 10497
    }
  ],
  "scene": 0,
  "scenes": [
    {
      "name": "Sketchfab_Scene",
      "nodes": [
        0
      ]
    }
  ],
  "textures": [
    {
      "sampler": 0,
      "source": 0
    },
    {
      "sampler": 0,
      "source": 1
    },
    {
      "sampler": 0,
      "source": 2
    }
  ]
}
