{
  "accessors": [
    {
      "bufferView": 2,
      "componentType": 5126,
      "count": 1096,
      "max": [
        4.350924968719482,
        8.0579252243042,
        1.5825427770614624
      ],
      "min": [
        -4.350924968719482,
        0.00042327880510129035,
        -1.5825427770614624
      ],
      "type": "VEC3"
    },
    {
      "bufferView": 2,
      "byteOffset": 13152,
      "componentType": 5126,
      "count": 1096,
      "max": [
        0.9696100354194641,
        1.0,
        1.0
      ],
      "min": [
        -0.9696085453033447,
        -1.0,
        -1.0
      ],
      "type": "VEC3"
    },
    {
      "bufferView": 1,
      "componentType": 5126,
      "count": 1096,
      "max": [
        0.8984271287918091,
        0.7642108201980591
      ],
      "min": [
        0.0005901157855987549,
        0.0006039738655090332
      ],
      "type": "VEC2"
    },
    {
      "bufferView": 1,
      "byteOffset": 8768,
      "componentType": 5126,
      "count": 1096,
      "max": [
        0.8984271287918091,
        0.7642108201980591
      ],
      "min": [
        0.0005901157855987549,
        0.0006039738655090332
      ],
      "type": "VEC2"
    },
    {
      "bufferView": 1,
      "byteOffset": 17536,
      "componentType": 5126,
      "count": 1096,
      "max": [
        0.8984271287918091,
        0.7642108201980591
      ],
      "min": [
        0.0005901157855987549,
        0.0006039738655090332
      ],
      "type": "VEC2"
    },
    {
      "bufferView": 0,
      "componentType": 5125,
      "count": 5040,
      "type": "SCALAR"
    }
  ],
  "asset": {
    "extras": {
      "author": "andre.arancibia (https://sketchfab.com/andre.arancibia)",
      "license": "CC-BY-4.0 (http://creativecommons.org/licenses/by/4.0/)",
      "source": "https://sketchfab.com/3d-models/a-letter-2ef2366bc0e44bb69dcf7451b2733b21",
      "title": "A Letter"
    },
    "generator": "Sketchfab-15.22.0",
    "version": "2.0"
  },
  "bufferViews": [
    {
      "buffer": 0,
      "byteLength": 20160,
      "name": "floatBufferViews",
      "target": 34963
    },
    {
      "buffer": 0,
      "byteLength": 26304,
      "byteOffset": 20160,
      "byteStride": 8,
      "name": "floatBufferViews",
      "target": 34962
    },
    {
      "buffer": 0,
      "byteLength": 26304,
      "byteOffset": 46464,
      "byteStride": 12,
      "name": "floatBufferViews",
      "target": 34962
    }
  ],
  "buffers": [
    {
      "byteLength": 72768,
      "uri": "scene.bin"
    }
  ],
  "extensionsRequired": [
    "KHR_materials_pbrSpecularGlossiness"
  ],
  "extensionsUsed": [
    "KHR_materials_pbrSpecularGlossiness"
  ],
  "images": [
    {
      "uri": "textures/material_diffuse.png"
    },
    {
      "uri": "textures/material_specularGlossiness.png"
    }
  ],
  "materials": [
    {
      "doubleSided": true,
      "extensions": {
        "KHR_materials_pbrSpecularGlossiness": {
          "diffuseFactor": [
            1.0,
            1.0,
            1.0,
            1.0
          ],
          "diffuseTexture": {
            "index": 0
          },
          "glossinessFactor": 1.0,
          "specularFactor": [
            1.0,
            1.0,
            1.0
          ],
          "specularGlossinessTexture": {
            "index": 1
          }
        }
      },
      "name": "material"
    }
  ],
  "meshes": [
    {
      "name": "Object_0",
      "primitives": [
        {
          "attributes": {
            "NORMAL": 1,
            "POSITION": 0,
            "TEXCOORD_0": 2,
            "TEXCOORD_1": 3,
            "TEXCOORD_2": 4
          },
          "indices": 5,
          "material": 0,
          "mode": 4
        }
      ]
    }
  ],
  "nodes": [
    {
      "children": [
        1
      ],
      "matrix": [
        1.0,
        0.0,
        0.0,
        0.0,
        0.0,
        2.220446049250313e-16,
        -1.0,
        0.0,
        0.0,
        1.0,
        2.220446049250313e-16,
        0.0,
        0.0,
        0.0,
        0.0,
        1.0
      ],
      "name": "Sketchfab_model"
    },
    {
      "children": [
        2
      ],
      "name": "root"
    },
    {
      "children": [
        3
      ],
      "matrix": [
        1.0,
        0.0,
        0.0,
        0.0,
        0.0,
        2.220446049250313e-16,
        1.0,
        0.0,
        0.0,
        -1.0,
        2.220446049250313e-16,
        0.0,
        0.0,
        0.0,
        0.0,
        1.0
      ],
      "name": "GLTF_SceneRootNode"
    },
    {
      "children": [
        4
      ],
      "name": "root_0"
    },
    {
      "children": [
        5
      ],
      "matrix": [
        0.05883806571364403,
        0.0,
        0.0,
        0.0,
        0.0,
        0.05883806571364403,
        0.0,
        0.0,
        0.0,
        0.0,
        0.05883806571364403,
        0.0,
        0.0,
        -0.23706883192062378,
        0.25600099563598633,
        1.0
      ],
      "name": "node_id30_1"
    },
    {
      "mesh": 0,
      "name": "Object_5"
    }
  ],
  "samplers": [
    {
      "magFilter": 9729,
      "minFilter": 9987,
      "wrapS": 10497,
      "wrapT": 10497
    }
  ],
  "scene": 0,
  "scenes": [
    {
      "name": "Sketchfab_Scene",
      "nodes": [
        0
      ]
    }
  ],
  "textures": [
    {
      "sampler": 0,
      "source": 0
    },
    {
      "sampler": 0,
      "source": 1
    }
  ]
}
